<?xml version="1.0" encoding="UTF-8" standalone="no" ?>
<!DOCTYPE svg PUBLIC "-//W3C//DTD SVG 1.1//EN" "http://www.w3.org/Graphics/SVG/1.1/DTD/svg11.dtd">
<svg xmlns="http://www.w3.org/2000/svg" xmlns:xlink="http://www.w3.org/1999/xlink" version="1.1" width="500" height="500" viewBox="0 0 500 500" xml:space="preserve">
<desc>Created with Fabric.js 5.3.0</desc>
<defs>
</defs>
<g transform="matrix(1 0 0 1 250 250)" id="QESb5mq0kavacq4JAhuXw"  >
<path style="stroke: none; stroke-width: 1; stroke-dasharray: none; stroke-linecap: butt; stroke-dashoffset: 0; stroke-linejoin: miter; stroke-miterlimit: 4; fill: rgb(0,0,0); fill-rule: nonzero; opacity: 1;" vector-effect="non-scaling-stroke"  transform=" translate(-224, -256)" d="M 400 32 L 48 32 C 21.490332008121914 32 0 53.49033200812191 0 80 L 0 432 C 0 458.5096679918781 21.490332008121914 480 48 480 L 185.25 480 L 185.25 327.69 L 122.25 327.69 L 122.25 256 L 185.25 256 L 185.25 201.36 C 185.25 139.21 222.25 104.88000000000001 278.92 104.88000000000001 C 306.06 104.88000000000001 334.44 109.72000000000001 334.44 109.72000000000001 L 334.44 170.72000000000003 L 303.17 170.72000000000003 C 272.36 170.72000000000003 262.75 189.84000000000003 262.75 209.45000000000002 L 262.75 256 L 331.53 256 L 320.53 327.69 L 262.75 327.69 L 262.75 480 L 400 480 C 426.5096679918781 480 448 458.5096679918781 448 432 L 448 80 C 448 53.49033200812191 426.5096679918781 32 400 32 z" stroke-linecap="round" />
</g>
</svg>