<?xml version="1.0" encoding="UTF-8" standalone="no" ?>
<!DOCTYPE svg PUBLIC "-//W3C//DTD SVG 1.1//EN" "http://www.w3.org/Graphics/SVG/1.1/DTD/svg11.dtd">
<svg xmlns="http://www.w3.org/2000/svg" xmlns:xlink="http://www.w3.org/1999/xlink" version="1.1" width="640" height="640" viewBox="0 0 640 640" xml:space="preserve">
<desc>Created with Fabric.js 5.3.0</desc>
<defs>
</defs>
<g transform="matrix(1 0 0 1 320 320)" id="UevnjCNT-TeWtoydvJ2Vf"  >
<path style="stroke: none; stroke-width: 1; stroke-dasharray: none; stroke-linecap: butt; stroke-dashoffset: 0; stroke-linejoin: miter; stroke-miterlimit: 4; fill: rgb(0,0,0); fill-rule: nonzero; opacity: 1;" vector-effect="non-scaling-stroke"  transform=" translate(-224, -256)" d="M 400 32 L 48 32 C 21.5 32 0 53.5 0 80 L 0 432 C 0 458.5 21.5 480 48 480 L 400 480 C 426.5 480 448 458.5 448 432 L 448 80 C 448 53.5 426.5 32 400 32 z M 277.3 415.7 C 268.90000000000003 417.2 265.8 412 265.8 407.7 C 265.8 402.3 266 374.7 266 352.4 C 266 336.79999999999995 260.8 326.9 254.7 321.7 C 291.7 317.59999999999997 330.7 312.5 330.7 248.6 C 330.7 230.4 324.2 221.29999999999998 313.59999999999997 209.6 C 315.29999999999995 205.29999999999998 320.99999999999994 187.6 311.9 164.6 C 298 160.29999999999998 266.2 182.5 266.2 182.5 C 253 178.8 238.7 176.9 224.6 176.9 C 210.5 176.9 196.2 178.8 183 182.5 C 183 182.5 151.2 160.3 137.3 164.6 C 128.20000000000002 187.5 133.8 205.2 135.60000000000002 209.6 C 125.00000000000003 221.29999999999998 120.00000000000003 230.4 120.00000000000003 248.6 C 120.00000000000003 312.2 157.3 317.6 194.3 321.7 C 189.5 326 185.20000000000002 333.4 183.70000000000002 344 C 174.20000000000002 348.3 149.90000000000003 355.7 135.40000000000003 330.1 C 126.30000000000004 314.3 109.90000000000003 313 109.90000000000003 313 C 93.70000000000003 312.8 108.80000000000004 323.2 108.80000000000004 323.2 C 119.60000000000004 328.2 127.20000000000005 347.4 127.20000000000005 347.4 C 136.90000000000003 377.09999999999997 183.30000000000004 367.09999999999997 183.30000000000004 367.09999999999997 C 183.30000000000004 380.99999999999994 183.50000000000003 403.59999999999997 183.50000000000003 407.7 C 183.50000000000003 412 180.50000000000003 417.2 172.00000000000003 415.7 C 106.00000000000003 393.59999999999997 59.800000000000026 330.79999999999995 59.800000000000026 257.4 C 59.800000000000026 165.59999999999997 130.00000000000003 95.89999999999998 221.8 95.89999999999998 C 313.6 95.89999999999998 388 165.6 388 257.4 C 388.1 330.79999999999995 343.3 393.7 277.3 415.7 z M 179.20000000000002 354.59999999999997 C 177.3 354.99999999999994 175.50000000000003 354.2 175.3 352.9 C 175.10000000000002 351.4 176.4 350.09999999999997 178.3 349.7 C 180.20000000000002 349.5 182 350.3 182.20000000000002 351.59999999999997 C 182.50000000000003 352.9 181.20000000000002 354.2 179.20000000000002 354.59999999999997 z M 169.70000000000002 353.7 C 169.70000000000002 355 168.20000000000002 356.09999999999997 166.20000000000002 356.09999999999997 C 164.00000000000003 356.29999999999995 162.50000000000003 355.2 162.50000000000003 353.7 C 162.50000000000003 352.4 164.00000000000003 351.3 166.00000000000003 351.3 C 167.90000000000003 351.1 169.70000000000002 352.2 169.70000000000002 353.7 z M 156.00000000000003 352.59999999999997 C 155.60000000000002 353.9 153.60000000000002 354.49999999999994 151.90000000000003 353.9 C 150.00000000000003 353.5 148.70000000000005 352 149.10000000000002 350.7 C 149.50000000000003 349.4 151.50000000000003 348.8 153.20000000000002 349.2 C 155.20000000000002 349.8 156.50000000000003 351.3 156.00000000000003 352.59999999999997 z M 143.70000000000002 347.2 C 142.8 348.3 140.9 348.09999999999997 139.4 346.59999999999997 C 137.9 345.29999999999995 137.5 343.4 138.5 342.49999999999994 C 139.4 341.3999999999999 141.3 341.59999999999997 142.8 343.09999999999997 C 144.10000000000002 344.4 144.60000000000002 346.4 143.70000000000002 347.2 z M 134.60000000000002 338.09999999999997 C 133.70000000000002 338.7 132.00000000000003 338.09999999999997 130.90000000000003 336.59999999999997 C 129.80000000000004 335.09999999999997 129.80000000000004 333.4 130.90000000000003 332.7 C 132.00000000000003 331.8 133.70000000000005 332.5 134.60000000000002 334 C 135.70000000000002 335.5 135.70000000000002 337.3 134.60000000000002 338.1 z M 128.10000000000002 328.4 C 127.20000000000002 329.29999999999995 125.70000000000002 328.79999999999995 124.60000000000002 327.79999999999995 C 123.50000000000003 326.49999999999994 123.30000000000003 324.99999999999994 124.20000000000002 324.29999999999995 C 125.10000000000002 323.4 126.60000000000002 323.9 127.70000000000002 324.9 C 128.8 326.2 129.00000000000003 327.7 128.10000000000002 328.4 z M 121.40000000000002 321 C 121.00000000000001 321.9 119.70000000000002 322.1 118.60000000000002 321.4 C 117.30000000000003 320.79999999999995 116.70000000000002 319.7 117.10000000000002 318.79999999999995 C 117.50000000000003 318.19999999999993 118.60000000000002 317.9 119.90000000000002 318.4 C 121.20000000000002 319.09999999999997 121.80000000000003 320.2 121.40000000000002 321 z" stroke-linecap="round" />
</g>
</svg>