<?xml version="1.0" encoding="UTF-8" standalone="no" ?>
<!DOCTYPE svg PUBLIC "-//W3C//DTD SVG 1.1//EN" "http://www.w3.org/Graphics/SVG/1.1/DTD/svg11.dtd">
<svg xmlns="http://www.w3.org/2000/svg" xmlns:xlink="http://www.w3.org/1999/xlink" version="1.1" width="640" height="640" viewBox="0 0 640 640" xml:space="preserve">
<desc>Created with Fabric.js 5.3.0</desc>
<defs>
</defs>
<g transform="matrix(1 0 0 1 320 320)" id="SNSLvmJG4jlRYMa6FAUOb"  >
<path style="stroke: none; stroke-width: 1; stroke-dasharray: none; stroke-linecap: butt; stroke-dashoffset: 0; stroke-linejoin: miter; stroke-miterlimit: 4; fill: rgb(0,0,0); fill-rule: nonzero; opacity: 1;" vector-effect="non-scaling-stroke"  transform=" translate(-224, -256)" d="M 224 202.66 C 194.54373746437798 202.6710447186376 170.67263921050056 226.55706464798945 170.68000166614615 256.01332833413176 C 170.68736412179175 285.4695920202741 194.5703997907671 309.3436760267049 224.02666416711807 309.3399958341663 C 253.48292854346903 309.3363156416278 277.359997929374 285.456264606248 277.36 256.00000000000006 C 277.33792822523264 226.54246974475836 253.45753645963254 202.67102865073457 224 202.66 Z M 348.71 161.66 C 343.2211823137199 147.7499889998162 332.2100110001837 136.73881768628004 318.29999999999995 131.25 C 297.29999999999995 122.96000000000001 247.29999999999995 124.82 223.99999999999994 124.82 C 200.69999999999993 124.82 150.74999999999994 122.88999999999999 129.68999999999994 131.25 C 115.77998899981617 136.73881768628004 104.76881768628 147.74998899981622 99.27999999999994 161.66 C 90.99999999999994 182.66 92.84999999999994 232.70999999999998 92.84999999999994 255.99 C 92.84999999999994 279.27000000000004 91 329.26 99.32 350.33 C 104.80881768628004 364.24001100018376 115.81998899981622 375.25118231371994 129.73 380.74 C 150.73 389.03000000000003 200.73 387.17 224.04 387.17 C 247.35 387.17 297.28 389.1 318.34 380.74 C 332.25001100018375 375.25118231371994 343.2611823137199 364.2400110001838 348.75 350.33 C 357.1 329.33 355.18 279.28 355.18 256 C 355.18 232.72000000000003 357.1 182.74 348.75 161.67 Z M 224 338 C 178.71265051387493 338 142 301.2873494861251 142 256 C 142 210.71265051387493 178.71265051387493 174 224 174 C 269.2873494861251 174 306 210.7126505138749 306 256 C 306.0265802249825 277.75588978251085 297.39585518129076 298.6283578265458 282.0121065039183 314.01210650391835 C 266.62835782654577 329.3958551812908 245.75588978251082 338.0265802249825 224 338 Z M 309.38 189.7 C 301.6376839037201 189.704045097781 294.65547688774524 185.04329935293632 291.68981748127595 177.89149264537272 C 288.7241580748067 170.73968593780913 290.359225970116 162.50559104585258 295.83244021250533 157.02951574008503 C 301.30565445489475 151.55344043431748 309.53889373181966 149.9140696035055 316.6922493238504 152.8759910527499 C 323.8456049158811 155.8379125019943 328.5099989432868 162.81768284700692 328.51 170.55999999999997 C 328.53126891930793 175.63774930407024 326.5297198775895 180.51496675786055 322.9476312397896 184.1139431891336 C 319.36554260198966 187.7129196204067 314.4977931750896 189.73738601303344 309.42 189.74 Z M 400 32 L 48 32 C 21.490332008121914 32 0 53.49033200812191 0 80 L 0 432 C 0 458.5096679918781 21.490332008121914 480 48 480 L 400 480 C 426.5096679918781 480 448 458.5096679918781 448 432 L 448 80 C 448 53.49033200812191 426.5096679918781 32 400 32 Z M 382.88 322 C 381.59 347.63 375.74 370.34000000000003 357.03 389 C 338.31999999999994 407.65999999999997 315.63 413.63 290.03 414.85 C 263.61999999999995 416.34000000000003 184.43999999999997 416.34000000000003 158.02999999999997 414.85 C 132.39999999999998 413.56 109.76999999999998 407.70000000000005 91.02999999999997 389 C 72.28999999999996 370.29999999999995 66.39999999999998 347.58 65.17999999999998 322 C 63.689999999999976 295.58 63.689999999999976 216.39 65.17999999999998 190 C 66.46999999999998 164.37 72.24999999999997 141.66 91.02999999999997 123 C 109.80999999999997 104.34 132.49999999999997 98.44 158.02999999999997 97.22 C 184.43999999999997 95.73 263.62 95.73 290.03 97.22 C 315.65999999999997 98.51 338.35999999999996 104.37 357.03 123.07 C 375.7 141.76999999999998 381.65999999999997 164.49 382.88 190.12 C 384.37 216.44 384.37 295.56 382.88 322 Z" stroke-linecap="round" />
</g>
</svg>